<?xml version="1.0"?>
<svg version="1.1" xmlns="http://www.w3.org/2000/svg" width="124px" height="43px" style="border: 2px solid black;border-radius: 25px;"><path fill="#6d32c7" d="M50.38037109375,27.7158203125q0-0.52880859375,0.134521484375-1.090087890625t0.4267578125-1.01123046875t0.737548828125-0.73291015625t1.076171875-0.282958984375q0.47314453125,0,0.997314453125,0.162353515625t0.960205078125,0.4638671875t0.709716796875,0.737548828125t0.273681640625,0.97412109375q0,0.6494140625-0.236572265625,1.23388671875t-0.663330078125,1.043701171875t-0.997314453125,0.7236328125t-1.238525390625,0.264404296875q-0.54736328125,0-0.95556640625-0.199462890625t-0.681884765625-0.533447265625t-0.408203125-0.78857421875t-0.134521484375-0.96484375z M51.744140625,27.697265625q0,0.1669921875,0.051025390625,0.49169921875t0.153076171875,0.635498046875t0.264404296875,0.5380859375t0.394287109375,0.208740234375q0.49169921875-0.0556640625,0.811767578125-0.320068359375t0.51953125-0.644775390625t0.2783203125-0.82568359375t0.078857421875-0.84423828125q0-0.51025390625-0.199462890625-0.853515625t-0.654052734375-0.556640625q0,0.0185546875,0.0185546875,0.0185546875t0.0185546875-0.0185546875l-0.23193359375-0.0556640625q-0.0927734375-0.037109375-0.227294921875-0.08349609375t-0.264404296875-0.2041015625q-0.36181640625,0.1298828125-0.561279296875,0.333984375t-0.301513671875,0.496337890625t-0.125244140625,0.700439453125t-0.023193359375,0.9833984375z M57.409536132812,30.8330078125q0-0.26904296875,0.023193359375-0.56591796875t0.041748046875-0.556640625l0.0556640625-1.3916015625q0.0927734375-1.669921875,0.227294921875-3.2841796875t0.227294921875-3.265625q0.0556640625-0.9091796875,0.08349609375-1.785888671875t0.08349609375-1.785888671875q-0.037109375-0.07421875-0.037109375-0.10205078125q0-0.1298828125,0.097412109375-0.2041015625t0.227294921875-0.125244140625t0.273681640625-0.069580078125t0.218017578125-0.0185546875l0.21337890625,0q0.28759765625,0.037109375,0.41748046875,0.180908203125t0.1669921875,0.34326171875t0.0185546875,0.4267578125t-0.0185546875,0.422119140625q0,1.34521484375-0.06494140625,2.741455078125t-0.1484375,2.8017578125t-0.153076171875,2.81103515625t-0.069580078125,2.778564453125l0,0.6494140625q0,0.43603515625-0.245849609375,0.5751953125t-0.681884765625,0.13916015625q-0.38037109375,0-0.66796875-0.1669921875t-0.28759765625-0.54736328125z M61.664775390625,27.53955078125q0-0.630859375,0.171630859375-1.21533203125t0.514892578125-1.043701171875t0.858154296875-0.73291015625t1.192138671875-0.273681640625q0.41748046875,0,0.923095703125,0.125244140625t0.950927734375,0.37109375t0.7421875,0.626220703125t0.296875,0.8720703125q0,0.23193359375-0.078857421875,0.3525390625t-0.320068359375,0.12060546875l-0.10205078125-0.0185546875q0.26904296875,0.7236328125,0.4638671875,1.484375t0.38037109375,1.521484375q0.07421875,0.1484375,0.111328125,0.264404296875t0.037109375,0.227294921875q0,0.1484375-0.08349609375,0.245849609375t-0.218017578125,0.143798828125t-0.2783203125,0.06494140625t-0.255126953125,0.0185546875q-0.39892578125,0-0.598388671875-0.13916015625t-0.28759765625-0.38037109375t-0.106689453125-0.542724609375t-0.07421875-0.607666015625q-0.111328125,0.36181640625-0.292236328125,0.705078125t-0.4267578125,0.616943359375t-0.579833984375,0.43603515625t-0.75146484375,0.162353515625q-0.6123046875,0-1.02978515625-0.3525390625t-0.672607421875-0.867431640625t-0.37109375-1.099365234375t-0.115966796875-1.08544921875z M62.982158203125,27.40966796875q0,0.34326171875,0.04638671875,0.7236328125t0.153076171875,0.75146484375t0.273681640625,0.700439453125t0.41748046875,0.579833984375q0.45458984375-0.49169921875,0.672607421875-1.19677734375t0.3896484375-1.359130859375t0.3896484375-1.12255859375t0.672607421875-0.468505859375q0.28759765625,0,0.482421875,0.10205078125q-0.0927734375-0.23193359375-0.30615234375-0.449951171875t-0.477783203125-0.39892578125t-0.54736328125-0.296875t-0.533447265625-0.115966796875q-0.07421875,0-0.171630859375,0.023193359375t-0.153076171875,0.004638671875q-0.38037109375,0.111328125-0.626220703125,0.385009765625t-0.39892578125,0.644775390625t-0.218017578125,0.7607421875t-0.06494140625,0.73291015625z M69.324799804688,21.6484375q0-0.1298828125,0.2783203125-0.22265625t0.630859375-0.153076171875t0.681884765625-0.088134765625t0.449951171875-0.04638671875q0-0.25048828125,0.0185546875-0.505615234375t0.10205078125-0.45458984375t0.264404296875-0.320068359375t0.505615234375-0.12060546875q0.26904296875,0,0.408203125,0.06494140625t0.296875,0.26904296875q0.037109375,0.111328125,0.037109375,0.21337890625l0,0.310791015625t-0.0185546875,0.320068359375q0.34326171875-0.037109375,0.681884765625-0.088134765625t0.681884765625-0.051025390625q0.25048828125,0,0.34326171875,0.00927734375t0.185546875,0.22265625q0.07421875,0.21337890625-0.180908203125,0.32470703125t-0.6123046875,0.1669921875t-0.709716796875,0.08349609375t-0.4267578125,0.02783203125q-0.111328125,1.595703125-0.227294921875,3.16357421875t-0.115966796875,3.18212890625q0,0.7236328125,0.04638671875,1.49365234375t0.259765625,1.45654296875q0.0556640625,0.21337890625,0.185546875,0.39892578125t0.1298828125,0.39892578125q0,0.1298828125-0.10205078125,0.2041015625t-0.245849609375,0.125244140625t-0.28759765625,0.060302734375t-0.236572265625,0.00927734375q-0.58447265625,0-0.890625-0.43603515625t-0.440673828125-1.043701171875t-0.143798828125-1.247802734375t-0.00927734375-1.0390625q0-0.81640625,0.032470703125-1.669921875t0.078857421875-1.6884765625t0.1298828125-1.6328125t0.19482421875-1.484375q-0.32470703125,0.037109375-0.635498046875,0.08349609375t-0.635498046875,0.04638671875q-0.07421875,0-0.199462890625-0.00927734375t-0.236572265625-0.04638671875t-0.190185546875-0.10205078125t-0.078857421875-0.185546875z M76.233359375,27.7158203125q0-0.52880859375,0.134521484375-1.090087890625t0.4267578125-1.01123046875t0.737548828125-0.73291015625t1.076171875-0.282958984375q0.47314453125,0,0.997314453125,0.162353515625t0.960205078125,0.4638671875t0.709716796875,0.737548828125t0.273681640625,0.97412109375q0,0.6494140625-0.236572265625,1.23388671875t-0.663330078125,1.043701171875t-0.997314453125,0.7236328125t-1.238525390625,0.264404296875q-0.54736328125,0-0.95556640625-0.199462890625t-0.681884765625-0.533447265625t-0.408203125-0.78857421875t-0.134521484375-0.96484375z M77.59712890625,27.697265625q0,0.1669921875,0.051025390625,0.49169921875t0.153076171875,0.635498046875t0.264404296875,0.5380859375t0.394287109375,0.208740234375q0.49169921875-0.0556640625,0.811767578125-0.320068359375t0.51953125-0.644775390625t0.2783203125-0.82568359375t0.078857421875-0.84423828125q0-0.51025390625-0.199462890625-0.853515625t-0.654052734375-0.556640625q0,0.0185546875,0.0185546875,0.0185546875t0.0185546875-0.0185546875l-0.23193359375-0.0556640625q-0.0927734375-0.037109375-0.227294921875-0.08349609375t-0.264404296875-0.2041015625q-0.36181640625,0.1298828125-0.561279296875,0.333984375t-0.301513671875,0.496337890625t-0.125244140625,0.700439453125t-0.023193359375,0.9833984375z M83.285717773437,25.215576171875q-0.023193359375-0.310791015625,0.037109375-0.570556640625t0.2412109375-0.422119140625t0.579833984375-0.162353515625q0.0927734375,0,0.227294921875,0.023193359375t0.264404296875,0.060302734375t0.218017578125,0.111328125t0.088134765625,0.2041015625l0,1.04833984375q0.36181640625-0.41748046875,0.78857421875-0.598388671875t0.97412109375-0.180908203125q0.41748046875,0,0.82568359375,0.190185546875t0.77001953125,0.505615234375t0.626220703125,0.69580078125t0.385009765625,0.7607421875q0.07421875-0.34326171875,0.1669921875-0.839599609375t0.273681640625-0.950927734375t0.477783203125-0.779296875t0.78857421875-0.32470703125q0.52880859375,0,0.890625,0.38037109375t0.589111328125,0.988037109375t0.34326171875,1.359130859375t0.171630859375,1.484375t0.0556640625,1.368408203125l0,0.997314453125q0,0.111328125-0.08349609375,0.180908203125t-0.208740234375,0.106689453125t-0.259765625,0.04638671875t-0.208740234375,0.00927734375q-0.28759765625,0-0.524169921875-0.088134765625t-0.236572265625-0.449951171875l0-0.8349609375t-0.0185546875-1.080810546875t-0.06494140625-1.15966796875t-0.12060546875-1.052978515625t-0.190185546875-0.7607421875t-0.282958984375-0.296875q-0.23193359375,0-0.333984375,0.259765625t-0.171630859375,0.65869140625t-0.106689453125,0.84423828125t-0.10205078125,0.84423828125t-0.208740234375,0.654052734375t-0.394287109375,0.255126953125q-0.26904296875,0-0.47314453125-0.255126953125t-0.403564453125-0.635498046875t-0.39892578125-0.81640625t-0.440673828125-0.81640625q-0.2412109375-0.3896484375-0.51953125-0.630859375q-0.25048828125-0.23193359375-0.56591796875-0.22265625l-0.04638671875,0q-0.41748046875,0.0185546875-0.654052734375,0.301513671875t-0.36181640625,0.691162109375t-0.153076171875,0.876708984375t-0.02783203125,0.821044921875q0,0.333984375,0.0556640625,0.779296875q0.037109375,0.296875,0.037109375,0.56591796875q0,0.13916015625-0.00927734375,0.26904296875q-0.02783203125,0.3896484375-0.208740234375,0.654052734375t-0.672607421875,0.264404296875q-0.185546875,0-0.4638671875-0.037109375t-0.37109375-0.25048828125q-0.21337890625-0.38037109375-0.32470703125-0.960205078125t-0.1669921875-1.19677734375t-0.06494140625-1.224609375t-0.00927734375-1.043701171875q0-0.30615234375-0.023193359375-0.616943359375z M94.986025390625,27.31689453125q0-0.853515625,0.199462890625-1.674560546875t0.338623046875-1.637451171875q0.037109375-0.21337890625,0.292236328125-0.264404296875t0.431396484375-0.051025390625q0.30615234375,0,0.49169921875,0.0927734375q0.07421875,0.037109375,0.13916015625,0.08349609375t0.06494140625,0.12060546875q0,0.7978515625-0.190185546875,1.55859375t-0.190185546875,1.6142578125q0,0.28759765625,0.041748046875,0.542724609375t0.078857421875,0.505615234375l0.0556640625,0.26904296875q0,0.07421875,0.00927734375,0.1298828125t0.02783203125,0.1298828125q0,0.1669921875-0.236572265625,0.227294921875t-0.412841796875,0.060302734375q-0.26904296875,0-0.496337890625-0.106689453125t-0.357177734375-0.366455078125l-0.1298828125-0.26904296875q-0.111328125-0.21337890625-0.111328125-0.477783203125t-0.04638671875-0.487060546875z M95.579775390625,21.73193359375l0-0.17626953125q0-0.43603515625,0.218017578125-0.779296875t0.654052734375-0.34326171875q0.0556640625,0,0.106689453125,0.00927734375t0.106689453125,0.00927734375q0.111328125,0.0185546875,0.292236328125,0.088134765625t0.180908203125,0.218017578125l0,0.0185546875q-0.037109375,0.07421875-0.04638671875,0.153076171875t-0.04638671875,0.134521484375l0.0185546875-0.0185546875q-0.111328125,0.28759765625-0.180908203125,0.4638671875t-0.153076171875,0.282958984375t-0.208740234375,0.153076171875t-0.357177734375,0.04638671875q-0.037109375,0-0.1298828125-0.00927734375t-0.199462890625-0.037109375t-0.180908203125-0.07421875t-0.07421875-0.13916015625z M99.037163085937,27.42822265625q0-0.7236328125,0.153076171875-1.312744140625t0.487060546875-0.997314453125t0.876708984375-0.635498046875t1.322021484375-0.227294921875q0.43603515625,0,0.890625,0.115966796875t0.779296875,0.431396484375q0-0.185546875,0.037109375-0.765380859375t0.0927734375-1.349853515625t0.115966796875-1.6142578125t0.106689453125-1.56787109375t0.08349609375-1.21533203125t0.0556640625-0.556640625q0.0927734375-0.26904296875,0.34326171875-0.320068359375t0.47314453125-0.051025390625q0.58447265625,0,0.718994140625,0.185546875t0.134521484375,0.7421875q0,2.03173828125-0.180908203125,4.044921875t-0.180908203125,4.044921875q0,1.30810546875,0.051025390625,2.630126953125t0.366455078125,2.602294921875l0.10205078125,0.0927734375l0.0556640625,0.1669921875l-0.13916015625,0.21337890625q-0.3525390625,0.22265625-0.81640625,0.22265625l-0.037109375,0q-0.47314453125,0-0.8720703125-0.22265625q-0.1484375-0.0927734375-0.245849609375-0.552001953125t-0.153076171875-1.01123046875t-0.08349609375-1.062255859375t-0.04638671875-0.7236328125q-0.32470703125,0.7421875-0.885986328125,1.275634765625t-1.414794921875,0.533447265625q-0.66796875,0-1.0947265625-0.28759765625t-0.663330078125-0.73291015625t-0.333984375-0.997314453125t-0.097412109375-1.099365234375z M100.15972167969,27.48388671875q0,0.21337890625,0.051025390625,0.630859375t0.162353515625,0.8349609375t0.310791015625,0.7421875t0.524169921875,0.32470703125q0.43603515625-0.21337890625,0.78857421875-0.709716796875t0.607666015625-1.0947265625t0.39892578125-1.19677734375t0.143798828125-1.034423828125q0-0.54736328125-0.39892578125-0.9091796875t-0.95556640625-0.36181640625q-0.1669921875,0-0.338623046875,0.06494140625t-0.320068359375,0.1484375q-0.34326171875,0.32470703125-0.533447265625,0.589111328125t-0.28759765625,0.54736328125t-0.125244140625,0.626220703125t-0.02783203125,0.7978515625z M107.81974609375,27.919921875q0-0.6494140625,0.143798828125-1.53076171875t0.487060546875-1.669921875t0.904541015625-1.340576171875t1.414794921875-0.552001953125q0.7978515625,0,1.19677734375,0.459228515625t0.39892578125,1.238525390625q0,0.51025390625-0.190185546875,1.117919921875t-0.542724609375,1.150390625t-0.8349609375,0.904541015625t-1.076171875,0.36181640625l-0.2412109375-0.0185546875q0,0.25048828125,0.07421875,0.672607421875t0.218017578125,0.839599609375t0.37109375,0.73291015625t0.552001953125,0.3154296875q0.47314453125,0,0.9091796875-0.38037109375t0.82568359375-0.84423828125t0.7236328125-0.84423828125t0.6123046875-0.38037109375q0.1484375,0,0.30615234375,0.04638671875t0.17626953125,0.259765625q0,0.1298828125-0.069580078125,0.21337890625t-0.125244140625,0.185546875q-0.28759765625,0.49169921875-0.626220703125,0.93701171875t-0.765380859375,0.80712890625t-0.932373046875,0.570556640625t-1.117919921875,0.208740234375q-0.7978515625,0-1.32666015625-0.282958984375t-0.853515625-0.7607421875t-0.468505859375-1.10400390625t-0.143798828125-1.312744140625z M109.480390625,27.21484375l0.259765625,0.23193359375q0.185546875,0.1669921875,0.37109375,0.07421875t0.333984375-0.338623046875t0.273681640625-0.607666015625t0.22265625-0.7421875t0.143798828125-0.7421875t0.04638671875-0.60302734375l0-0.3154296875t-0.02783203125-0.333984375t-0.097412109375-0.264404296875t-0.218017578125-0.134521484375q-0.04638671875-0.00927734375-0.08349609375-0.00927734375q-0.3154296875,0-0.5380859375,0.39892578125q-0.2412109375,0.4453125-0.3896484375,1.080810546875t-0.21337890625,1.303466796875t-0.08349609375,1.001953125z"/><path fill="#" d=""/></svg>
